<?xml version="1.0" standalone="no"?>
<!DOCTYPE svg PUBLIC "-//W3C//DTD SVG 20010904//EN"
 "http://www.w3.org/TR/2001/REC-SVG-20010904/DTD/svg10.dtd">
<svg version="1.0" xmlns="http://www.w3.org/2000/svg"
 width="160.000000pt" height="160.000000pt" viewBox="0 0 160.000000 160.000000"
 preserveAspectRatio="xMidYMid meet">
<metadata>
Created by potrace 1.14, written by Peter Selinger 2001-2017
</metadata>
<g transform="translate(0.000000,160.000000) scale(0.100000,-0.100000)"
fill="#000000" stroke="none">
<path d="M1443 1554 c-18 -19 -33 -46 -33 -59 0 -18 -34 -54 -137 -144 -75
-67 -140 -121 -144 -121 -5 0 -16 14 -26 30 -11 19 -25 30 -40 30 -25 0 -57
49 -48 72 3 8 0 21 -7 31 -12 15 -15 15 -45 -4 -27 -17 -31 -24 -23 -40 6 -10
18 -19 28 -19 25 0 64 -60 51 -77 -8 -9 -4 -21 15 -44 23 -28 33 -49 22 -49
-2 0 -14 16 -26 36 -14 21 -29 34 -39 32 -21 -5 -69 61 -52 72 9 5 7 13 -7 30
l-18 22 -30 -25 c-24 -22 -27 -29 -18 -44 7 -10 19 -17 27 -15 22 4 57 -50 50
-77 -4 -14 1 -30 14 -44 30 -33 36 -47 21 -47 -8 0 -22 14 -31 30 -10 17 -27
30 -37 30 -25 0 -62 48 -54 72 5 18 -10 48 -26 48 -4 0 -19 -9 -34 -21 -22
-17 -24 -24 -15 -40 6 -12 16 -18 23 -16 7 3 19 -2 27 -12 41 -49 42 -51 30
-65 -9 -10 -4 -22 19 -51 l30 -38 -69 -54 c-78 -60 -107 -100 -117 -160 -6
-39 -9 -43 -80 -78 -88 -43 -142 -53 -269 -49 -80 3 -106 8 -165 34 -100 44
-146 44 -189 1 -21 -22 -23 -31 -19 -86 19 -226 393 -634 584 -635 84 0 116
78 79 194 -13 42 -16 76 -12 143 3 48 8 99 11 113 3 14 8 34 10 46 6 30 46
111 60 123 9 8 22 -1 46 -31 49 -59 115 -98 165 -98 78 0 136 25 194 85 29 30
54 55 56 55 1 0 19 -25 39 -55 20 -30 42 -55 49 -55 17 0 57 29 57 41 0 5 -20
37 -45 71 -24 33 -42 65 -39 70 6 10 23 -8 68 -72 26 -38 30 -40 49 -27 43 28
42 41 -2 99 -22 30 -41 61 -41 68 0 7 14 -7 30 -32 39 -59 54 -71 80 -63 34
11 42 39 19 66 -11 13 -29 38 -40 56 l-20 32 38 38 c142 143 184 250 142 367
-34 92 -103 135 -179 112 -22 -7 -21 -4 13 29 21 20 44 35 51 32 21 -8 96 30
104 54 12 31 4 64 -22 88 -38 36 -65 35 -103 -5z m51 -307 c31 -42 27 -131 -8
-191 -16 -27 -33 -45 -39 -42 -7 3 -20 9 -29 12 -10 4 -19 13 -19 20 -1 8 -3
19 -4 24 -1 6 -3 16 -4 23 -2 26 -50 68 -78 69 -29 1 -29 1 22 48 94 87 117
93 159 37z m-138 -145 c29 -42 20 -86 -18 -90 -48 -6 -90 82 -56 116 20 20 51
10 74 -26z m-110 -12 c1 -35 -1 -38 -12 -22 -17 21 -17 35 -2 50 7 7 12 12 13
12 0 0 1 -18 1 -40z m-70 -77 c30 -42 36 -53 27 -53 -11 1 -66 80 -56 80 5 0
18 -12 29 -27z m144 -35 c0 -13 -23 -5 -28 10 -2 7 2 10 12 6 9 -3 16 -11 16
-16z m-206 -45 c34 -50 21 -64 -15 -16 -30 40 -35 53 -19 53 5 0 20 -17 34
-37z m145 -39 c18 -25 31 -47 28 -50 -5 -6 -67 75 -67 88 0 14 6 9 39 -38z
m-207 -55 c24 -34 47 -67 52 -74 7 -10 -3 -26 -36 -57 l-46 -43 -51 72 c-28
39 -51 75 -51 79 0 11 72 84 82 84 4 0 27 -28 50 -61z m137 -11 c31 -43 38
-58 23 -58 -12 0 -71 87 -65 94 9 9 9 9 42 -36z m-270 -68 c4 -3 28 -37 55
-77 48 -71 54 -102 21 -104 -36 -3 -52 -2 -78 6 -33 9 -107 90 -107 118 0 10
19 37 42 59 38 35 43 37 51 21 6 -10 13 -20 16 -23z"/>
</g>
</svg>
